# xmcd CD database file
#
# Track frame offsets:
#	150
#	20450
#	42350
#	59575
#	83475
#	111475
#	128262
#	141837
#	161100
#	183900
#	207225
#	233550
#	261912
#	287975
#	311047
#
# Disc length: 4547 seconds
#
# Revision: 1
# Processed by: cddbd v1.5.2PL0 Copyright (c) Steve Scherf et al.
# Submitted via: CDex 1.70beta3
#
DISCID=d511c10f
DTITLE=DIAMANTES - Diamantes Golden★Best
DYEAR=2004
DGENRE=J-Pop
TTITLE0=魂をコンドルにのせて
TTITLE1=沖縄ミ・アモール
TTITLE2=ガンバッテヤンド
TTITLE3=勝利のうた(シングル・バージョン)
TTITLE4=アスタ・マーニャ(明日への子守歌)
TTITLE5=オキナワ・ラティーナ
TTITLE6=野茂英雄のテーマ〜Hide〜O
TTITLE7=フィエスタ(シングル・バージョン)
TTITLE8=片手に三線を
TTITLE9=Viva! 夏の色
TTITLE10=瞳はダイヤモンド
TTITLE11=この青い空を君に
TTITLE12=風の道
TTITLE13=コンドルは飛んで行く
TTITLE14=魂をコンドルにのせて(スパニッシュ・アンプラグド・バージョン)
EXTD=YEAR: 2004
EXTT0=
EXTT1=
EXTT2=
EXTT3=
EXTT4=
EXTT5=
EXTT6=
EXTT7=
EXTT8=
EXTT9=
EXTT10=
EXTT11=
EXTT12=
EXTT13=
EXTT14=
PLAYORDER=
